# xmcd
#
# Track frame offsets: 
#        150
#        18087
#        35212
#        52112
#        73675
#        91925
#        111150
#        130762
#        149512
#        167512
#
# Disc length: 2490 seconds
#
# Revision: 11
# Processed by: cddbd v1.5.2PL0 Copyright (c) Steve Scherf et al.
# Submitted via: ExactAudioCopy v1.0b3
#
DISCID=8a09b80a
DTITLE=王傑 - Giving (Disk 1)
DYEAR=2000
DGENRE=Blues
TTITLE0=心癮
TTITLE1=又愛孤獨又愛你
TTITLE2=可能
TTITLE3=飄流物語
TTITLE4=相見歡
TTITLE5=哭泣情歌
TTITLE6=失敗者
TTITLE7=再遇
TTITLE8=溫柔的你
TTITLE9=還有 (王傑 容袓兒合唱) 
EXTD=YEAR: 2000
EXTT0=
EXTT1=
EXTT2=
EXTT3=
EXTT4=
EXTT5=
EXTT6=
EXTT7=
EXTT8=
EXTT9=
PLAYORDER=
